<svg width="84" height="84" viewBox="0 0 84 84" fill="none" xmlns="http://www.w3.org/2000/svg">
<g clip-path="url(#clip0_2633_271)">
<path d="M41.6404 0.0236206C20.3694 0.0236206 21.6976 9.24799 21.6976 9.24799L21.7212 18.8047H42.0197V21.6739H13.6589C13.6589 21.6739 0.0476074 20.1302 0.0476074 41.5925C0.0476074 63.0554 11.9279 62.2942 11.9279 62.2942H19.018V52.3346C19.018 52.3346 18.6358 40.4543 30.7087 40.4543H50.8412C50.8412 40.4543 62.1522 40.6371 62.1522 29.5226V11.1454C62.1522 11.1454 63.8701 0.0236206 41.6404 0.0236206ZM30.4478 6.45033C30.9275 6.4499 31.4025 6.54406 31.8458 6.72742C32.289 6.91078 32.6917 7.17974 33.0309 7.51892C33.3701 7.8581 33.6391 8.26083 33.8224 8.70406C34.0058 9.1473 34.0999 9.62235 34.0995 10.102C34.0999 10.5817 34.0058 11.0567 33.8224 11.5C33.6391 11.9432 33.3701 12.3459 33.0309 12.6851C32.6917 13.0243 32.289 13.2933 31.8458 13.4766C31.4025 13.66 30.9275 13.7541 30.4478 13.7537C29.9682 13.7541 29.4931 13.66 29.0499 13.4766C28.6066 13.2933 28.2039 13.0243 27.8647 12.6851C27.5256 12.3459 27.2566 11.9432 27.0732 11.5C26.8899 11.0567 26.7957 10.5817 26.7961 10.102C26.7957 9.62235 26.8899 9.1473 27.0732 8.70406C27.2566 8.26083 27.5256 7.8581 27.8647 7.51892C28.2039 7.17974 28.6066 6.91078 29.0499 6.72742C29.4931 6.54406 29.9682 6.4499 30.4478 6.45033Z" fill="url(#paint0_linear_2633_271)"/>
<path d="M42.2443 83.3772C63.5153 83.3772 62.1872 74.1529 62.1872 74.1529L62.1636 64.5965H41.8647V61.7273H70.2255C70.2255 61.7273 83.8368 63.271 83.8368 41.808C83.8368 20.3454 71.9565 21.1066 71.9565 21.1066H64.8664V31.0659C64.8664 31.0659 65.2486 42.9462 53.1757 42.9462H33.0432C33.0432 42.9462 21.7322 42.7634 21.7322 53.8783V72.2558C21.7322 72.2558 20.0146 83.3772 42.244 83.3772H42.2443ZM53.4369 76.9512C52.9572 76.9516 52.4822 76.8575 52.039 76.6741C51.5957 76.4907 51.193 76.2218 50.8538 75.8826C50.5146 75.5434 50.2457 75.1407 50.0623 74.6974C49.8789 74.2542 49.7848 73.7792 49.7852 73.2995C49.7847 72.8198 49.8789 72.3447 50.0622 71.9014C50.2456 71.4582 50.5145 71.0554 50.8537 70.7162C51.1929 70.377 51.5956 70.108 52.0389 69.9246C52.4821 69.7412 52.9572 69.647 53.4369 69.6475C53.9166 69.647 54.3916 69.7412 54.8349 69.9246C55.2781 70.1079 55.6808 70.3769 56.02 70.7161C56.3592 71.0552 56.6281 71.458 56.8115 71.9012C56.9949 72.3445 57.089 72.8195 57.0886 73.2992C57.089 73.7788 56.9949 74.2539 56.8115 74.6971C56.6281 75.1404 56.3592 75.5431 56.02 75.8823C55.6808 76.2214 55.2781 76.4904 54.8349 76.6738C54.3916 76.8571 53.9166 76.9513 53.4369 76.9509V76.9512Z" fill="url(#paint1_linear_2633_271)"/>
</g>
<defs>
<linearGradient id="paint0_linear_2633_271" x1="8.09973" y1="7.52078" x2="49.6232" y2="48.63" gradientUnits="userSpaceOnUse">
<stop stop-color="#387EB8"/>
<stop offset="1" stop-color="#366994"/>
</linearGradient>
<linearGradient id="paint1_linear_2633_271" x1="33.5867" y1="33.9186" x2="78.1781" y2="76.0723" gradientUnits="userSpaceOnUse">
<stop stop-color="#FFE052"/>
<stop offset="1" stop-color="#FFC331"/>
</linearGradient>
<clipPath id="clip0_2633_271">
<rect width="84" height="83.664" fill="white"/>
</clipPath>
</defs>
</svg>
