<svg width="327" height="38" viewBox="0 0 327 38" fill="none" xmlns="http://www.w3.org/2000/svg">
<path d="M7.09471 15.1665C9.65492 15.1665 12.3371 15.0095 14.8973 14.8525C15.9945 14.8525 16.9698 14.6955 18.0671 14.6955C22.6998 14.3814 27.3326 14.0674 31.9654 13.7533C37.5735 13.4393 43.0597 12.9683 48.6678 12.6542C56.5923 12.0261 64.5167 11.5551 72.4412 10.927C74.2699 10.77 76.0987 10.77 77.9274 10.613C82.5602 10.299 87.1929 9.98491 91.8257 9.8279C96.4585 9.51386 101.091 9.19982 105.724 9.04281C107.553 8.88579 109.381 8.72877 111.21 8.72877C118.525 8.41473 125.962 8.1007 133.277 7.78666C137.788 7.62964 142.299 7.47262 146.931 7.15859C148.76 7.15859 150.467 7.00157 152.296 7.00157C159.367 6.84455 166.56 6.68753 173.631 6.53052C180.702 6.3735 187.651 6.21648 194.722 6.05946C196.551 6.05946 198.38 6.05946 200.33 6.05946C204.963 6.05946 209.474 6.05946 214.107 6.05946C221.3 6.05946 228.371 6.05946 235.564 5.90244C237.88 5.90244 240.196 5.90244 242.513 5.90244C247.389 5.90244 252.266 5.90244 257.143 5.90244C257.508 5.90244 257.996 5.90244 258.362 5.90244C247.389 6.05946 236.295 6.21648 225.323 6.53052C220.69 6.68753 216.179 6.68753 211.546 6.84455C209.596 6.84455 207.523 6.84455 205.573 7.00157C198.867 7.15859 192.284 7.47262 185.578 7.62964C177.898 7.94368 170.217 8.1007 162.536 8.41473C161.195 8.41473 159.976 8.57175 158.635 8.57175C154.49 8.88579 150.467 9.04281 146.322 9.35684C138.032 9.8279 129.741 10.299 121.451 10.77C120.232 10.77 119.013 10.927 117.794 11.084C113.77 11.3981 109.625 11.8691 105.602 12.1832C98.2872 12.8112 91.0942 13.4393 83.7793 14.0674C81.8287 14.2244 79.7561 14.5384 77.8055 14.6955C73.1727 15.1665 68.5399 15.6376 63.9072 16.2656C58.0552 16.8937 52.0814 17.5218 46.2295 18.1499C38.0612 19.092 29.7709 20.0341 21.6026 20.9762C19.652 21.1332 17.7013 21.4472 15.6288 21.6043C12.0932 22.0753 8.55769 22.5464 5.02215 23.0174C4.6564 23.0174 4.29066 23.3315 4.29066 23.9595C4.29066 24.4306 4.6564 24.9016 5.02215 24.9016C6.36322 24.9016 7.58237 25.0587 8.92343 25.0587C8.6796 25.8437 8.55769 26.3148 8.55769 26.7859C8.55769 28.5131 9.65492 30.0832 11.1179 30.0832C21.2369 29.2981 31.2339 28.356 41.3529 27.728C50.1307 27.2569 58.9086 26.6288 67.6865 26.1578C77.3178 25.5297 87.071 24.9016 96.7023 24.4306C99.7502 24.2736 102.798 24.1165 105.846 23.8025C106.699 23.8025 107.553 23.6455 108.528 23.6455C124.133 23.1744 139.738 22.5464 155.343 22.0753C163.634 21.7613 172.046 21.4472 180.336 21.2902C183.384 21.1332 186.31 21.1332 189.358 20.9762C205.329 20.6621 221.3 20.3481 237.27 20.0341C244.098 19.8771 250.925 19.72 257.752 19.563C263.604 19.406 269.456 19.406 275.308 19.092C280.185 18.9349 284.939 18.6209 289.816 18.4639C292.254 18.3069 294.693 18.3069 297.009 18.1499C302.495 17.6788 307.981 17.2077 313.467 16.7367C313.102 17.3648 313.102 18.3069 313.224 18.9349C313.345 19.72 313.711 20.3481 314.321 20.6621C314.808 20.9762 315.54 21.2902 316.028 20.9762C317.247 20.3481 318.466 19.72 319.563 19.092C319.563 19.092 319.563 19.092 319.441 19.092C319.563 19.092 319.563 18.9349 319.685 18.9349C319.807 18.9349 319.929 18.7779 319.929 18.7779H319.807C320.417 18.4639 321.026 18.1499 321.758 17.6788C322.367 17.3648 323.099 16.8937 323.708 16.5797C324.44 16.1086 325.049 15.6376 325.781 15.1665C326.512 14.6955 327 13.4393 327 12.3402C327 11.7121 326.878 11.2411 326.634 10.613C326.39 9.98491 325.781 9.19982 325.171 9.04281C324.562 8.88579 323.952 8.72877 323.343 8.72877C323.221 8.72877 323.099 8.72877 322.977 8.72877C322.611 8.72877 322.123 8.72877 321.758 8.88579C320.782 9.04281 319.929 9.19982 318.954 9.19982C318.222 9.19982 317.491 9.35684 316.637 9.35684C314.565 9.51386 312.614 9.67088 310.541 9.98491C310.054 9.98491 309.444 10.1419 308.957 10.1419C309.2 9.8279 309.322 9.51386 309.322 9.19982C309.444 8.88579 309.444 8.57175 309.444 8.25772C309.444 8.1007 309.444 7.78666 309.566 7.62964C309.566 7.31561 309.566 7.00157 309.444 6.84455C309.444 6.84455 309.566 6.84455 309.566 6.68753C309.932 6.3735 310.298 6.05946 310.541 5.43139C310.785 4.96034 310.907 4.33226 310.907 3.70419C310.907 3.07612 310.785 2.60506 310.541 1.97699C310.42 1.81997 310.298 1.50594 310.176 1.34892C309.81 0.877864 309.444 0.720846 309.078 0.563828C308.347 0.249792 307.494 0.0927734 306.64 0.0927734C305.909 0.0927734 305.299 0.0927734 304.568 0.0927734C303.592 0.0927734 302.617 0.0927734 301.642 0.0927734C300.301 0.0927734 298.838 0.0927734 297.497 0.0927734C293.839 0.0927734 290.182 0.0927734 286.524 0.0927734C283.111 0.0927734 279.575 0.0927734 276.161 0.0927734C272.992 0.0927734 269.944 0.0927734 266.774 0.0927734C254.217 0.0927734 241.781 0.249792 229.224 0.40681C219.837 0.563828 210.449 0.720846 201.062 0.720846C196.917 0.720846 192.65 0.877864 188.504 1.03488C179.117 1.34892 169.729 1.50594 160.342 1.81997C157.66 1.81997 154.978 1.97699 152.296 1.97699C150.711 1.97699 149.248 2.13401 147.663 2.13401C138.397 2.60506 129.132 3.07612 119.866 3.54717C117.062 3.70419 114.258 3.86121 111.332 4.01823C109.747 4.01823 108.162 4.17524 106.577 4.33226C97.3119 4.96034 88.1683 5.58841 78.9027 6.21648C74.148 6.53052 69.3933 6.84455 64.6386 7.31561C56.4703 7.94368 48.302 8.57175 40.2556 9.35684C33.1845 9.98491 26.1135 10.456 19.0424 10.927C17.9452 11.084 16.8479 11.084 15.6288 11.2411C13.8 11.3981 11.9713 11.3981 10.1426 11.5551C8.55769 12.1832 6.85088 12.1832 5.26598 12.1832C5.14406 11.5551 4.6564 11.084 4.29066 11.2411C3.19342 11.2411 2.2181 11.3981 1.12086 11.5551C0.633205 11.7121 0.145544 12.0261 0.023629 12.6542C-0.0982862 13.4393 0.267459 14.2244 0.75512 14.3814C1.24278 14.5384 1.73044 14.6955 2.2181 14.8525C2.70576 15.0095 3.07151 15.0095 3.55917 15.0095C4.77832 15.1665 5.87556 15.1665 7.09471 15.1665ZM292.376 10.1419C293.839 10.1419 295.424 10.1419 296.887 10.1419C297.009 10.613 297.253 10.927 297.497 11.2411C296.887 11.2411 296.277 11.3981 295.79 11.3981C294.693 11.3981 293.595 11.5551 292.498 11.5551C287.621 11.7121 282.867 12.0261 277.99 12.1832C275.796 12.3402 273.601 12.4972 271.407 12.4972C267.993 12.4972 264.458 12.6542 261.044 12.6542C253.119 12.8112 245.317 12.9683 237.392 13.1253C222.031 13.4393 206.792 13.7533 191.43 14.0674C180.458 14.2244 169.486 14.6955 158.513 15.1665C142.055 15.7946 125.474 16.2656 109.016 16.8937C105.724 17.0507 102.432 17.2077 99.1406 17.5218C89.7532 18.1499 80.3657 18.6209 70.9782 19.249C61.8346 19.8771 52.569 20.3481 43.4254 20.9762C42.572 20.9762 41.7186 21.1332 40.8652 21.1332C43.3035 20.8192 45.8637 20.6621 48.302 20.3481C56.958 19.563 65.614 18.6209 74.2699 17.8358C77.3178 17.5218 80.3657 17.2077 83.2917 16.8937C84.8766 16.7367 86.4614 16.5797 87.9244 16.5797C97.0681 15.9516 106.09 15.1665 115.112 14.5384C116.818 14.3814 118.647 14.2244 120.354 14.0674C122.914 13.9104 125.474 13.7533 127.913 13.7533C137.178 13.2823 146.444 12.8112 155.709 12.3402C157.782 12.1832 159.854 12.1832 161.805 12.0261C162.293 12.0261 162.902 12.0261 163.39 12.0261C164.853 12.0261 166.316 12.0261 167.657 11.8691C176.922 11.5551 186.31 11.3981 195.575 11.084C199.843 10.927 204.11 10.77 208.377 10.77C222.153 10.613 236.051 10.456 249.828 10.299C264.214 10.299 278.356 10.1419 292.376 10.1419Z" fill="#9875F5"/>
<path d="M25.3592 37.1398C25.7278 37.1398 26.0266 36.7449 26.0266 36.2577C26.0266 35.7706 25.7278 35.3757 25.3592 35.3757C24.9907 35.3757 24.6919 35.7706 24.6919 36.2577C24.6919 36.7449 24.9907 37.1398 25.3592 37.1398Z" fill="#9875F5"/>
</svg>
